<svg width="60" height="60" viewBox="0 0 60 60" fill="none" xmlns="http://www.w3.org/2000/svg">
<rect width="60" height="60" rx="30" fill="url(#paint0_linear_444_1119)"/>
<path d="M24.2035 46C21.4026 46 19.2807 45.1546 17.8379 43.4637C16.593 42.0264 15.9706 40.0678 15.9706 37.5878C15.9706 35.9251 16.2394 34.2343 16.7769 32.5152C17.3145 30.7679 18.0925 29.0207 19.111 27.2734C17.4418 26.7098 16.0131 25.7939 14.8248 24.5258C13.6083 23.2012 13 21.7499 13 20.1717C13 18.3399 13.8346 16.9591 15.5038 16.0291C16.8335 15.2963 18.3896 14.93 20.1719 14.93C23.284 14.93 26 15.9304 28.3199 17.9313C32.5354 15.3104 36.7367 14 40.9239 14C44.7715 14 46.6954 15.0145 46.6954 17.0436C46.6954 19.0163 45.1252 21.144 41.9848 23.4267C37.5713 26.6394 32.0403 28.2457 25.3917 28.2457C24.9391 28.2457 24.4864 28.2316 24.0337 28.2034C23.6094 28.1753 23.1991 28.133 22.8031 28.0766C20.4549 31.8247 19.2807 35.2911 19.2807 38.4756C19.2807 40.3074 19.6768 41.7869 20.469 42.9141C21.4875 44.3796 23.0294 45.1123 25.0947 45.1123C28.8575 45.1123 32.5778 42.9141 36.2557 38.5178C38.123 36.2633 39.0566 34.2906 39.0566 32.5997C39.0566 31.0498 38.2503 30.2748 36.6377 30.2748C34.8553 30.2748 32.6203 31.247 29.9326 33.1915C27.5561 34.9388 25.802 36.7001 24.6703 38.4756C24.5854 38.6165 24.4864 38.6869 24.3732 38.6869C24.1752 38.6869 24.0762 38.546 24.0762 38.2642C24.0762 38.1515 24.0903 38.081 24.1186 38.0528C24.9957 36.1083 26.679 34.192 29.1687 32.3038C31.7149 30.3875 34.0066 29.4293 36.0436 29.4293C37.4016 29.4293 38.4342 29.852 39.1415 30.6975C39.7922 31.5148 40.1176 32.5011 40.1176 33.6565C40.1176 34.6147 39.9337 35.6011 39.5659 36.6156C39.1981 37.6301 38.604 38.6306 37.7835 39.6169C36.2275 41.5896 34.2046 43.1396 31.7149 44.2668C29.1687 45.4223 26.6649 46 24.2035 46ZM25.4766 27.1889C26.9195 27.1889 28.3765 27.0621 29.8477 26.8085C33.8934 26.0476 37.7128 24.3708 41.3058 21.7781C43.7106 20.059 44.913 18.3258 44.913 16.5786C44.913 15.4232 43.9511 14.8454 42.0272 14.8454C38.2927 14.8454 34.3319 16.5222 30.1447 19.8758C30.3994 20.2422 30.6399 20.6085 30.8662 20.9749C31.0925 21.3413 31.3047 21.7217 31.5027 22.1162C31.6159 22.3135 31.5593 22.4403 31.333 22.4967H31.2057C30.9793 22.4967 30.8237 22.4122 30.7389 22.2431C30.5974 22.0458 30.4135 21.8063 30.1872 21.5244C29.9608 21.2144 29.6921 20.8763 29.3809 20.5099C27.0892 22.4826 25.123 24.6667 23.4821 27.0621C24.1611 27.1466 24.8259 27.1889 25.4766 27.1889ZM19.79 26.1744C21.7421 23.1871 24.2601 20.6508 27.3439 18.5654C24.9108 16.6491 22.3504 15.6909 19.6627 15.6909C18.333 15.6909 17.1872 16.015 16.2252 16.6631C15.0936 17.4522 14.5277 18.5936 14.5277 20.0872C14.5277 22.849 16.2818 24.878 19.79 26.1744Z" fill="white"/>
<defs>
<linearGradient id="paint0_linear_444_1119" x1="60" y1="60" x2="-11.3946" y2="39.2998" gradientUnits="userSpaceOnUse">
<stop stop-color="#FB9400"/>
<stop offset="1" stop-color="#FFAB38"/>
</linearGradient>
</defs>
</svg>
